<?xml version="1.0" standalone="no"?>
<!DOCTYPE svg PUBLIC "-//W3C//DTD SVG 20010904//EN"
 "http://www.w3.org/TR/2001/REC-SVG-20010904/DTD/svg10.dtd">
<svg version="1.0" xmlns="http://www.w3.org/2000/svg"
 width="225.000000pt" height="300.000000pt" viewBox="0 0 225.000000 300.000000"
 preserveAspectRatio="xMidYMid meet">

<g transform="translate(0.000000,300.000000) scale(0.100000,-0.100000)"
fill="#000000" stroke="none">
<path d="M195 1732 c-3 -3 -5 -88 -5 -189 0 -139 3 -183 13 -184 6 0 21 -2 32
-4 11 -2 39 -1 62 2 39 5 43 8 43 34 0 28 -2 29 -45 29 l-45 0 0 154 0 154
-25 4 c-13 3 -27 3 -30 0z"/>
<path d="M364 1731 c-6 -6 -5 -367 1 -373 3 -3 17 -3 30 0 l25 4 0 187 0 186
-26 0 c-14 0 -28 -2 -30 -4z"/>
<path d="M500 1727 c-25 -13 -25 -13 -28 -176 -2 -110 1 -168 9 -177 14 -17
71 -28 103 -20 48 12 56 30 56 132 l0 94 -50 0 c-41 0 -50 -3 -50 -18 0 -9 9
-23 21 -30 17 -11 20 -21 17 -65 -3 -45 -6 -52 -25 -55 -23 -3 -23 -3 -23 133
0 136 0 136 23 133 16 -2 23 -11 25 -30 3 -24 8 -28 33 -28 27 0 29 3 29 39 0
31 -6 44 -26 60 -30 24 -77 27 -114 8z"/>
<path d="M715 1718 c-2 -13 -14 -88 -25 -168 -11 -80 -23 -155 -26 -167 -4
-20 0 -23 31 -23 33 0 35 2 35 35 0 24 5 35 15 35 19 0 55 -36 55 -55 0 -10
10 -15 30 -15 18 0 30 5 30 13 0 28 -50 348 -55 357 -4 6 -24 10 -45 10 -33 0
-40 -4 -45 -22z m49 -253 c-26 -19 -28 -6 -13 78 l13 72 9 -68 c9 -61 8 -69
-9 -82z"/>
<path d="M443 1260 c-37 -15 -43 -42 -43 -188 0 -165 7 -181 80 -189 36 -4 51
-1 73 17 l27 21 0 150 c0 146 -1 151 -25 174 -25 26 -70 32 -112 15z m72 -185
c0 -127 0 -130 -22 -133 -23 -3 -23 -3 -23 133 0 136 0 136 23 133 22 -3 22
-6 22 -133z"/>
<path d="M624 1261 c-2 -2 -4 -87 -4 -188 l0 -183 30 0 30 0 0 155 0 155 25 0
c24 0 25 -2 25 -71 0 -64 -2 -71 -21 -76 -24 -7 -23 -23 8 -110 17 -49 20 -53
51 -53 38 0 38 0 13 71 -18 54 -18 55 0 78 28 34 27 158 -1 194 -17 22 -29 26
-86 29 -36 1 -68 1 -70 -1z"/>
<path d="M813 1253 c-10 -26 2 -48 27 -48 l25 0 3 -157 3 -158 34 0 34 0 3
158 c3 138 5 157 19 154 23 -3 41 22 32 44 -7 16 -19 19 -92 19 -55 0 -85 -4
-88 -12z"/>
<path d="M1033 1263 c-10 -3 -13 -47 -13 -171 0 -92 4 -172 8 -178 23 -34 85
-43 132 -19 l30 16 0 174 0 175 -30 0 -30 0 0 -160 0 -160 -25 0 -25 0 0 159
c0 136 -2 160 -16 165 -9 3 -16 6 -17 5 -1 0 -8 -3 -14 -6z"/>
<path d="M1259 1251 c-23 -19 -24 -23 -24 -175 0 -177 3 -185 76 -193 35 -4
50 0 72 17 26 21 27 25 27 116 l0 94 -50 0 c-41 0 -50 -3 -50 -18 0 -9 9 -23
21 -30 17 -11 20 -21 17 -65 -3 -45 -6 -52 -25 -55 -23 -3 -23 -3 -23 133 0
136 0 136 23 133 16 -2 23 -11 25 -30 3 -24 8 -28 33 -28 27 0 29 3 29 39 0
31 -6 44 -26 60 -34 27 -94 28 -125 2z"/>
<path d="M1495 1258 c-5 -16 -55 -334 -55 -354 0 -9 11 -14 29 -14 32 0 31 -4
52 154 13 92 20 93 33 5 6 -41 5 -47 -14 -52 -28 -7 -25 -36 5 -47 18 -7 25
-17 25 -35 0 -22 4 -25 34 -25 34 0 35 1 30 33 -3 17 -15 102 -27 187 l-22
155 -43 3 c-28 2 -44 -1 -47 -10z"/>
<path d="M1670 1078 l0 -188 75 0 75 0 0 30 c0 29 -2 30 -45 30 l-44 0 -3 158
-3 157 -27 0 -28 1 0 -188z"/>
<path d="M190 1075 l0 -185 30 0 30 0 0 155 0 155 25 0 c24 0 25 -2 25 -75 0
-64 -3 -76 -20 -85 -23 -12 -27 -50 -6 -50 23 0 70 20 78 33 4 7 8 56 8 109 0
118 -8 128 -107 128 l-63 0 0 -185z"/>
<path d="M0 503 c0 -291 1 -299 24 -348 12 -28 40 -65 61 -84 80 -70 14 -66
1004 -69 622 -2 911 1 948 8 80 17 142 63 178 134 l30 60 3 298 3 298 -1125 0
-1126 0 0 -297z m1592 197 c26 -27 30 -36 25 -67 -7 -42 -29 -69 -64 -78 -38
-9 -79 12 -98 51 -14 30 -14 37 -1 69 26 61 90 72 138 25z m-1112 -24 c0 -8
-7 -49 -15 -92 -8 -43 -14 -79 -12 -80 1 -2 19 1 39 5 57 13 118 -2 150 -38
76 -85 -3 -305 -134 -372 -56 -28 -139 -34 -237 -15 -46 8 -86 17 -88 19 -2 2
1 16 6 30 12 32 107 435 116 494 l7 42 56 6 c31 4 62 8 67 10 24 8 45 4 45 -9z
m387 -288 l-7 -123 63 120 c57 111 64 120 90 119 15 -1 47 -2 72 -3 l44 -1 3
-111 3 -112 44 108 c24 59 50 109 57 112 17 6 154 9 154 3 0 -3 -54 -97 -119
-210 l-118 -205 -70 -3 c-84 -3 -83 -6 -83 138 l0 95 -57 -115 -58 -115 -68
-3 c-48 -2 -69 1 -72 10 -6 18 -36 391 -31 395 3 3 107 20 140 22 18 1 19 -5
13 -121z m723 112 c0 -6 -23 -103 -51 -215 l-51 -205 -79 0 c-44 0 -79 3 -79
8 -1 8 93 395 97 401 2 3 90 15 146 20 9 0 17 -4 17 -9z m210 -6 c0 -11 5 -14
16 -10 83 32 180 32 214 1 46 -42 42 -96 -31 -367 l-10 -38 -79 0 c-50 0 -80
4 -80 11 0 5 14 64 30 129 37 148 38 170 6 170 -48 0 -64 -28 -98 -170 l-33
-135 -69 -3 c-38 -2 -75 -1 -82 2 -9 3 -3 39 23 143 19 76 38 167 41 203 l7
65 45 6 c84 11 100 10 100 -7z"/>
<path d="M428 388 c-14 -12 -62 -188 -53 -197 14 -13 62 0 81 22 26 31 49 124
40 161 -7 29 -40 35 -68 14z"/>
</g>
</svg>
